<svg id="_ÎÓÈ_1" data-name="—ÎÓÈ 1" xmlns="http://www.w3.org/2000/svg" viewBox="0 0 4.41 5.27"><defs><style>.cls-1{fill-rule:evenodd;}</style></defs><title>CareViso_Icon_lock</title><path class="cls-1" d="M4,5.27H.43A.43.43,0,0,1,0,4.83V2.73a.43.43,0,0,1,.13-.31h0a.44.44,0,0,1,.19-.11V1.89a1.87,1.87,0,0,1,.14-.72,1.89,1.89,0,0,1,3.63.72v.43a.44.44,0,0,1,.19.11.43.43,0,0,1,.13.31v2.1a.43.43,0,0,1-.13.31h0A.43.43,0,0,1,4,5.27ZM2.2,2.87a.51.51,0,0,0-.32.9v.61a.25.25,0,0,0,.25.25h.14a.25.25,0,0,0,.25-.25h0V3.77a.51.51,0,0,0,.13-.16.51.51,0,0,0-.45-.74Zm.26.25a.36.36,0,0,0-.58.42A.37.37,0,0,0,2,3.67H2a.07.07,0,0,1,0,.06v.64a.11.11,0,0,0,0,.08.11.11,0,0,0,.08,0h.14a.11.11,0,0,0,.11-.11h0V3.74a.07.07,0,0,1,0-.06.37.37,0,0,0,.11-.13.36.36,0,0,0-.07-.42Zm-2-.82H.84V1.89a1.35,1.35,0,0,1,.1-.52A1.36,1.36,0,0,1,2.21.53a1.35,1.35,0,0,1,.52.1,1.37,1.37,0,0,1,.74.74,1.35,1.35,0,0,1,.1.52V2.3h.38V1.89a1.73,1.73,0,0,0-.13-.67A1.75,1.75,0,0,0,2.87.28a1.74,1.74,0,0,0-1.33,0,1.75,1.75,0,0,0-.95.95,1.73,1.73,0,0,0-.13.67V2.3ZM1,2.3H3.42V1.89a1.21,1.21,0,0,0-.09-.46A1.23,1.23,0,0,0,2.67.76a1.21,1.21,0,0,0-.93,0,1.23,1.23,0,0,0-.66.66A1.2,1.2,0,0,0,1,1.89V2.3Zm-.05.14H.39a.29.29,0,0,0-.16.08h0a.29.29,0,0,0-.08.2v2.1a.29.29,0,0,0,.29.29H4A.29.29,0,0,0,4.18,5h0a.29.29,0,0,0,.08-.2V2.73A.29.29,0,0,0,4,2.45H.93Z"/></svg>