<svg id="_ÎÓÈ_1" data-name="—ÎÓÈ 1" xmlns="http://www.w3.org/2000/svg" viewBox="0 0 7.02 5.85"><defs><style>.cls-1{fill-rule:evenodd;}</style></defs><title>CareViso_Icon_wifi</title><path class="cls-1" d="M3.52,4.44a.7.7,0,1,1-.5.21.7.7,0,0,1,.5-.21ZM2.37,4.1l-.16-.16a.41.41,0,0,1-.12-.34.41.41,0,0,1,.19-.31,2.27,2.27,0,0,1,2.49,0A.41.41,0,0,1,5,3.6a.42.42,0,0,1,0,.18.42.42,0,0,1-.1.16l-.16.16a.41.41,0,0,1-.51.06,1.25,1.25,0,0,0-1.28,0,.41.41,0,0,1-.51-.06Zm-.06-.27L2.47,4A.27.27,0,0,0,2.8,4,1.4,1.4,0,0,1,4.23,4a.27.27,0,0,0,.33,0l.16-.16a.26.26,0,0,0,.08-.22.26.26,0,0,0-.12-.2,2.12,2.12,0,0,0-2.33,0,.26.26,0,0,0-.12.2.28.28,0,0,0,0,.12.27.27,0,0,0,.07.1ZM6.17,2.05A4.12,4.12,0,0,0,.84,2h0A.42.42,0,0,1,.28,2h0L.12,1.85h0A.41.41,0,0,1,0,1.54a.42.42,0,0,1,0-.17.41.41,0,0,1,.11-.13,5.15,5.15,0,0,1,6.73,0,.4.4,0,0,1,.14.3.41.41,0,0,1-.12.31L6.74,2h0a.42.42,0,0,1-.56,0ZM3.51.92a4.26,4.26,0,0,1,2.76,1,.27.27,0,0,0,.37,0h0l.16-.16a.27.27,0,0,0,.06-.09.27.27,0,0,0-.08-.31,5,5,0,0,0-6.54,0,.28.28,0,0,0-.08.31.26.26,0,0,0,.06.09h0l.15.15h0a.27.27,0,0,0,.37,0h0a4.24,4.24,0,0,1,2.76-1ZM5.17,3.09a.42.42,0,0,0,.28.09h0a.42.42,0,0,0,.27-.12l.16-.16a.41.41,0,0,0,0-.62,3.72,3.72,0,0,0-4.64,0,.42.42,0,0,0,0,.62L1.32,3a.42.42,0,0,0,.55,0,2.72,2.72,0,0,1,3.3,0Zm-1.65-.7A2.86,2.86,0,0,1,5.26,3,.27.27,0,0,0,5.44,3h0A.27.27,0,0,0,5.62,3l.16-.16a.27.27,0,0,0,.06-.1.29.29,0,0,0,0-.22.27.27,0,0,0-.07-.09,3.58,3.58,0,0,0-4.46,0,.26.26,0,0,0-.1.2.28.28,0,0,0,0,.11.28.28,0,0,0,.06.1l.16.16a.27.27,0,0,0,.36,0,2.86,2.86,0,0,1,1.74-.59Zm.4,2.37a.56.56,0,1,0,.16.4A.56.56,0,0,0,3.92,4.75Z"/></svg>