<svg id="_ÎÓÈ_1" data-name="—ÎÓÈ 1" xmlns="http://www.w3.org/2000/svg" viewBox="0 0 6.34 4.4"><defs><style>.cls-1{fill-rule:evenodd;}</style></defs><title>CareViso_Icon_Account </title><path class="cls-1" d="M3.08.49a.36.36,0,0,1,.26.11h0a.36.36,0,0,1,0,.51h0A.36.36,0,1,1,3.08.49Zm0,3.1a.07.07,0,1,1,0-.14H5.26a.07.07,0,0,1,0,.14Zm0-.6a.07.07,0,1,1,0-.14H5.71a.07.07,0,0,1,0,.14ZM1.46,1.46A.62.62,0,0,1,1.9,2.51l-.12.09a1,1,0,0,1,.36.23h0a1,1,0,0,1,.28.68.07.07,0,0,1-.07.07H.58A.07.07,0,0,1,.5,3.51a1,1,0,0,1,.28-.68h0a1,1,0,0,1,.36-.23L1,2.51a.62.62,0,0,1,.44-1.06Zm0,1.24h0a.82.82,0,0,0-.79.74H2.28A.81.81,0,0,0,2,2.94H2a.82.82,0,0,0-.55-.24Zm.31-1a.47.47,0,1,0-.36.81h0a.47.47,0,0,0,.31-.81ZM.43,0A.43.43,0,0,0,0,.43V4a.43.43,0,0,0,.13.3h0a.43.43,0,0,0,.31.13H5.9A.43.43,0,0,0,6.34,4V.43A.43.43,0,0,0,6.21.13h0A.43.43,0,0,0,5.9,0ZM5.9.14H.43A.29.29,0,0,0,.14.43V4a.29.29,0,0,0,.08.2h0a.29.29,0,0,0,.2.08H5.9A.29.29,0,0,0,6.19,4V.43a.29.29,0,0,0-.08-.2h0A.29.29,0,0,0,5.9.14ZM3.24.69a.22.22,0,1,0,0,.31h0a.22.22,0,0,0,0-.31Z"/></svg>