<svg id="_ÎÓÈ_1" data-name="—ÎÓÈ 1" xmlns="http://www.w3.org/2000/svg" viewBox="0 0 6.45 6.45"><defs><style>.cls-1{fill-rule:evenodd;}</style></defs><title>CareViso_Icon_setting</title><path class="cls-1" d="M4.09.8l.24.1h.09L4.94.63a.25.25,0,0,1,.29,0h0l.54.54a.25.25,0,0,1,0,.29L5.55,2a.1.1,0,0,0,0,.09l.1.25,0,0,0,0,.55.18a.25.25,0,0,1,.13.09h0a.25.25,0,0,1,0,.15V3.6a.25.25,0,0,1,0,.15h0a.25.25,0,0,1-.13.09L5.72,4l0,0,0,0h0l-.1.24a.11.11,0,0,0,0,0,.11.11,0,0,0,0,0l.27.52a.25.25,0,0,1,0,.29l-.54.54a.25.25,0,0,1-.29,0l-.52-.27H4.33l-.25.1,0,0,0,0-.18.55h0a.25.25,0,0,1-.09.13.25.25,0,0,1-.15,0H2.84a.25.25,0,0,1-.24-.18h0l-.18-.55,0,0,0,0h0l-.24-.1H2l-.52.27a.25.25,0,0,1-.29,0L.67,5.23h0A.25.25,0,0,1,.6,5.09a.25.25,0,0,1,0-.15L.9,4.42a.1.1,0,0,0,0-.09L.8,4.08l0,0,0,0L.18,3.84A.25.25,0,0,1,0,3.75H0A.25.25,0,0,1,0,3.6V2.84a.25.25,0,0,1,0-.15H0A.25.25,0,0,1,.18,2.6l.55-.18h0l0,0,0,0,.1-.25A.1.1,0,0,0,.9,2L.63,1.51a.25.25,0,0,1,0-.29h0L1.21.67a.25.25,0,0,1,.29,0L2,.9h.09L2.36.8h0l0,0,0,0h0L2.6.18h0A.25.25,0,0,1,2.84,0H3.6a.25.25,0,0,1,.24.18h0L4,.73l0,0,0,0Zm-.86,4A1.59,1.59,0,1,0,2.1,4.34a1.58,1.58,0,0,0,1.12.46Zm1.22-.36A1.73,1.73,0,1,0,3.22,5a1.72,1.72,0,0,0,1.22-.51ZM4.28,1,4,.93H4A.25.25,0,0,1,3.88.77L3.71.22h0a.11.11,0,0,0,0-.05L3.6.14H2.84l-.06,0a.11.11,0,0,0,0,.05h0L2.56.77h0a.25.25,0,0,1-.05.09L2.42.93h0L2.17,1h0l-.11,0L2,1,1.44.76H1.38l-.06,0-.54.54h0a.11.11,0,0,0,0,.13L1,2a.24.24,0,0,1,0,.21l-.1.25a.25.25,0,0,1-.06.09l-.09.05h0l-.55.18-.05,0h0a.11.11,0,0,0,0,.06V3.6a.11.11,0,0,0,0,.06h0l.05,0,.55.18.09.05A.26.26,0,0,1,.93,4l.1.25a.25.25,0,0,1,0,.11.25.25,0,0,1,0,.11L.76,5a.11.11,0,0,0,0,.07.11.11,0,0,0,0,.06h0l.54.54.06,0h.07L2,5.42l.11,0,.11,0,.24.1h0l.09.06a.25.25,0,0,1,.05.09l.18.55h0a.11.11,0,0,0,0,.05l.06,0H3.6l.06,0a.11.11,0,0,0,0-.05h0l.18-.55a.25.25,0,0,1,.05-.09L4,5.52l.25-.1.11,0,.11,0L5,5.69h.07l.06,0,.54-.54a.1.1,0,0,0,0-.13l-.27-.52a.25.25,0,0,1,0-.11.25.25,0,0,1,0-.11L5.52,4h0a.25.25,0,0,1,.06-.09l.09-.05.55-.18.05,0h0a.11.11,0,0,0,0-.06V2.84a.11.11,0,0,0,0-.06h0l-.05,0-.55-.18-.09-.05a.25.25,0,0,1-.06-.09l-.1-.25a.25.25,0,0,1,0-.11.24.24,0,0,1,0-.1l.27-.52a.11.11,0,0,0,0-.07.11.11,0,0,0,0-.06L5.13.78h0l-.06,0H5L4.49,1l-.11,0L4.28,1ZM3.85.18l0,.09a.07.07,0,0,0,0-.09ZM3.22,2.5a.72.72,0,0,0-.51.21h0a.72.72,0,0,0,0,1h0a.72.72,0,0,0,1,0h0A.72.72,0,0,0,3.22,2.5Zm.41.31a.58.58,0,0,0-.81,0h0a.58.58,0,0,0,0,.81h0a.58.58,0,0,0,.81,0h0a.58.58,0,0,0,0-.81Z"/></svg>