<svg id="_ÎÓÈ_1" data-name="—ÎÓÈ 1" xmlns="http://www.w3.org/2000/svg" viewBox="0 0 5.19 8.09"><defs><style>.cls-1{fill-rule:evenodd;}</style></defs><title>CareViso_Icon_Door</title><path class="cls-1" d="M5,7.84V.25A.11.11,0,0,0,4.94.14H4.78a.11.11,0,0,0-.08,0h0a.11.11,0,0,0,0,.07V7.84a.11.11,0,0,0,.11.11h.15a.11.11,0,0,0,.08,0H5a.11.11,0,0,0,0-.08ZM0,7.27V.82A.25.25,0,0,1,.07.64h0A.25.25,0,0,1,.25.57H4.53V.25A.25.25,0,0,1,4.6.08h0A.25.25,0,0,1,4.78,0h.15a.25.25,0,0,1,.25.25V7.84A.25.25,0,0,1,5.11,8h0a.25.25,0,0,1-.18.07H4.78A.25.25,0,0,1,4.6,8h0a.25.25,0,0,1-.07-.18V7.52H.25a.25.25,0,0,1-.18-.07h0A.25.25,0,0,1,0,7.27ZM.14.82V7.27a.11.11,0,0,0,.11.11H4.53V.71H.25a.11.11,0,0,0-.08,0h0a.11.11,0,0,0,0,.08ZM4.92,5.26a.07.07,0,1,1-.14,0V2.88a.07.07,0,1,1,.14,0V5.26ZM.35,7.09a.07.07,0,0,0,.07.07H4.25a.07.07,0,0,0,.07-.07V1A.07.07,0,0,0,4.25.93H.42A.07.07,0,0,0,.35,1V7.09Zm.14-6V7H4.18V1.07Z"/></svg>