<svg id="_ÎÓÈ_1" data-name="—ÎÓÈ 1" xmlns="http://www.w3.org/2000/svg" viewBox="0 0 4.61 6.2"><defs><style>.cls-1{fill-rule:evenodd;}</style></defs><title>CareViso_Icon_Phone</title><path class="cls-1" d="M1.09,3.92,0,5.27a.07.07,0,0,0,0,.1H0L.84,6A.8.8,0,0,0,2,5.91,16.09,16.09,0,0,0,3.44,3.77,16.06,16.06,0,0,0,4.56,1.41a.8.8,0,0,0-.46-1L3.13,0A.07.07,0,0,0,3,0H3L2.39,1.66a.07.07,0,0,0,0,.09h0L3,2c-.18.4-.39.79-.61,1.18h0c-.22.39-.46.76-.71,1.12L1.19,3.9a.07.07,0,0,0-.1,0ZM.17,5.31l1-1.25.46.37h0a.07.07,0,0,0,.1,0c.27-.38.53-.78.77-1.19h0c.24-.41.46-.84.65-1.26h0a.07.07,0,0,0,0-.09l-.55-.21L3.14.16,4,.52a.66.66,0,0,1,.38.84A16,16,0,0,1,3.32,3.7,15.94,15.94,0,0,1,1.85,5.82a.66.66,0,0,1-.92.1L.17,5.31ZM3.14,2h0Z"/></svg>