<svg id="_ÎÓÈ_1" data-name="—ÎÓÈ 1" xmlns="http://www.w3.org/2000/svg" viewBox="0 0 4.52 7.04"><defs><style>.cls-1{fill-rule:evenodd;}</style></defs><title>CareViso_Icon_fridge</title><path class="cls-1" d="M.43,0H4.09a.43.43,0,0,1,.43.43h0V6.61a.43.43,0,0,1-.13.31h0A.43.43,0,0,1,4.09,7H.43A.43.43,0,0,1,0,6.61V.43H0A.43.43,0,0,1,.43,0ZM3.88,4.27V5.83a.07.07,0,1,0,.14,0V4.27a.07.07,0,0,0-.14,0Zm0-2.16V3.67a.07.07,0,1,0,.14,0V2.11a.07.07,0,0,0-.14,0ZM2.26,1a.54.54,0,1,0,.38.16A.54.54,0,0,0,2.26,1Zm.28.26a.4.4,0,1,0,.12.28.4.4,0,0,0-.12-.28ZM.14,3.88H4.38V.43h0A.29.29,0,0,0,4.09.14H.43A.29.29,0,0,0,.14.43h0V3.88ZM4.38,4H.14V6.61a.29.29,0,0,0,.29.29H4.09a.29.29,0,0,0,.2-.08h0a.29.29,0,0,0,.08-.2Z"/></svg>