<svg id="_ÎÓÈ_1" data-name="—ÎÓÈ 1" xmlns="http://www.w3.org/2000/svg" viewBox="0 0 3.79 6.16"><defs><style>.cls-1{fill-rule:evenodd;}</style></defs><title>CareViso_Icon_Mobile</title><path class="cls-1" d="M.43,0H3.36a.43.43,0,0,1,.31.13h0a.43.43,0,0,1,.13.31V5.72a.43.43,0,0,1-.43.43H.43A.43.43,0,0,1,.13,6h0A.43.43,0,0,1,0,5.72V.43A.43.43,0,0,1,.43,0ZM1.51,5.68h.78a.07.07,0,1,0,0-.14H1.51a.07.07,0,0,0,0,.14ZM.44.59A.07.07,0,0,0,.37.66V5.21a.07.07,0,0,0,.07.07H3.35a.07.07,0,0,0,.07-.07V.66A.07.07,0,0,0,3.35.59ZM3.28.73H.51V5.14H3.28V.73ZM3.36.14H.43A.29.29,0,0,0,.14.43V5.72a.29.29,0,0,0,.08.2h0A.29.29,0,0,0,.43,6H3.36a.29.29,0,0,0,.29-.29V.43a.29.29,0,0,0-.08-.2h0A.29.29,0,0,0,3.36.14Z"/></svg>