<svg id="_ÎÓÈ_1" data-name="—ÎÓÈ 1" xmlns="http://www.w3.org/2000/svg" viewBox="0 0 5.06 7.12"><defs><style>.cls-1{fill-rule:evenodd;}</style></defs><title>CareViso_Icon_Help</title><path class="cls-1" d="M1.72,4.41l.24.1a.33.33,0,0,1,.11.07.37.37,0,0,1,.07.11l.39.85.39-.89A.3.3,0,0,1,3,4.54l.11-.07.22-.08,0,0a.35.35,0,0,1-.07-.2h0V4l0,0h0a1.14,1.14,0,0,1-.31.2.9.9,0,0,1-.35.07.93.93,0,0,1-.48-.14A1.23,1.23,0,0,1,1.84,4v.19h0a.35.35,0,0,1-.07.2l0,0Zm2.14-2v.07h0c0,.06,0,.12,0,.18l0,.19,0,.18-.05.17h0a2.35,2.35,0,0,1-.12.27l-.06.1h0l.12,0a2.68,2.68,0,0,0,.43-2.21,2,2,0,0,0-.4-.76,1.34,1.34,0,0,0-.56-.4.59.59,0,0,0-.55,0l0,0L2.48.3c-.06,0-.09,0-.12-.11s-.05,0-.13,0a1.24,1.24,0,0,0-.49.18,1.85,1.85,0,0,0-.55.5h0c-.39.55-.55,1.44.22,2.7l.12,0h0a2.32,2.32,0,0,1-.2-.45,2.93,2.93,0,0,1-.14-.71h0s0-.06,0-.09,0-.06,0-.09,0-.06,0-.08V2.09A1.67,1.67,0,0,1,1.86,1h0A.07.07,0,0,1,2,1a.74.74,0,0,0,.42.36A3.19,3.19,0,0,0,3,1.54a2.75,2.75,0,0,1,.53.12.41.41,0,0,1,.3.32h0a3.47,3.47,0,0,1,0,.43Zm-.29.72v0h0a2.22,2.22,0,0,1-.11.25,1.85,1.85,0,0,1-.14.22h0l-.08.1h0l-.1.1h0a1,1,0,0,1-.28.18.76.76,0,0,1-.29.06A.79.79,0,0,1,2.12,4a1.25,1.25,0,0,1-.36-.34h0a2.07,2.07,0,0,1-.28-.55,2.8,2.8,0,0,1-.13-.67h0s0-.05,0-.07,0-.05,0-.08V2.11a1.48,1.48,0,0,1,.54-.94.91.91,0,0,0,.46.35A3.28,3.28,0,0,0,3,1.68a2.66,2.66,0,0,1,.5.11c.12,0,.2.11.21.21s0,.13,0,.19A1.37,1.37,0,0,1,3.47,3a.86.86,0,0,1-.65.3V3.21a.07.07,0,0,0-.07-.07H2.38a.07.07,0,0,0-.07.07v.38a.07.07,0,0,0,.07.07h.36a.07.07,0,0,0,.07-.07V3.47a1,1,0,0,0,.75-.34ZM1.9,4.64l.06,0,0,.07.45,1a.07.07,0,0,0,.1,0l0,0h0l.45-1,0-.05.07,0,.35-.13h0l.3.06a.72.72,0,0,1,0,.18,2.34,2.34,0,0,0,.08.4L3.3,4.77a.07.07,0,0,0-.1,0h0L2.51,6.47,1.82,4.8a.07.07,0,0,0-.09,0h0l-.63.35a2.37,2.37,0,0,0,.08-.4.84.84,0,0,1,0-.17l.32-.07.38.16Zm1.59-.31h.06l.32.06h0a1.67,1.67,0,0,1,.28.1,1.35,1.35,0,0,1,.74.89,4.17,4.17,0,0,1,.12,1.2h0v.09a.43.43,0,0,1-.43.43H.43A.43.43,0,0,1,.13,7h0A.43.43,0,0,1,0,6.68V6.6H0A4.14,4.14,0,0,1,.12,5.4h0a1.35,1.35,0,0,1,.74-.89l.25-.09h0l.37-.08h.06a.15.15,0,0,0,.08-.05.21.21,0,0,0,0-.12h0V3.83l-.06-.07-.16,0-.16,0,0,0C.47,2.31.65,1.36,1.07.77h0A2,2,0,0,1,1.66.23,1.38,1.38,0,0,1,2.22,0c.13,0,.23,0,.26.09A.73.73,0,0,1,3.16.05,1.48,1.48,0,0,1,3.78.5a2.16,2.16,0,0,1,.43.82,2.83,2.83,0,0,1-.46,2.36l0,0h0l-.16,0-.15,0-.05.07v.33h0a.21.21,0,0,0,0,.12.14.14,0,0,0,.09.05h0Zm.64.31a1.21,1.21,0,0,1,.66.8A4,4,0,0,1,4.91,6.6h0v.09A.29.29,0,0,1,4.62,7H.43a.29.29,0,0,1-.2-.08h0a.29.29,0,0,1-.08-.2V6.6h0A4,4,0,0,1,.26,5.44h0a1.21,1.21,0,0,1,.66-.8L1,4.6l0,.1a2.28,2.28,0,0,1-.13.54.07.07,0,0,0,0,.06.07.07,0,0,0,.1,0l.73-.4.73,1.75h0a.07.07,0,0,0,.13,0l.73-1.75.73.4h.06a.07.07,0,0,0,0-.09A2.3,2.3,0,0,1,4,4.7s0-.08,0-.12l.15.06ZM1.69,4.16a.07.07,0,0,1,.08-.07l-.08.07ZM1.2,2.43h0Zm1.48,1v.11H2.45V3.28h.22v.11h0Z"/></svg>