<svg id="_ÎÓÈ_1" data-name="—ÎÓÈ 1" xmlns="http://www.w3.org/2000/svg" viewBox="0 0 7.38 5.28"><defs><style>.cls-1{fill-rule:evenodd;}</style></defs><title>CareViso_Icon_Cloud</title><path class="cls-1" d="M1.25,5.27A1.25,1.25,0,0,1,.3,3.2h0A1.25,1.25,0,0,1,1,2.79,1.75,1.75,0,0,1,4.15,2l.13,0h.18a1.25,1.25,0,0,1,1.17.8A1.25,1.25,0,0,1,6.7,4h0A1.25,1.25,0,0,1,5.44,5.27H1.25ZM6.89,2l.32-.1A2.63,2.63,0,0,0,4.28.19l.08.33A2.29,2.29,0,0,1,6.89,2Zm.44,0a.07.07,0,0,0,0-.09h0A2.77,2.77,0,0,0,4.18.06a.07.07,0,0,0-.06.08h0l.11.47a.07.07,0,0,0,.09.05h0A2.15,2.15,0,0,1,6.78,2.09a.07.07,0,0,0,.09,0L7.33,2ZM6,2.32H6a.07.07,0,0,0,.09,0l.46-.15h0a.07.07,0,0,0,0-.09A1.93,1.93,0,0,0,4.41.87h0A.07.07,0,0,0,4.34,1l.1.47a.07.07,0,0,0,.08.06A1.3,1.3,0,0,1,6,2.32Zm-.5-.8a1.44,1.44,0,0,1,.61.68l.32-.1A1.79,1.79,0,0,0,4.5,1l.07.33a1.44,1.44,0,0,1,.9.18ZM.47,4.8a1.1,1.1,0,0,0,.78.32H5.44A1.11,1.11,0,0,0,6.55,4h0a1.11,1.11,0,0,0-1-1.1.07.07,0,0,1-.06,0,1.11,1.11,0,0,0-1-.75H4.29l-.16,0h0a.07.07,0,0,1-.08,0,1.62,1.62,0,0,0-.58-.5A1.61,1.61,0,0,0,1.15,2.86a.07.07,0,0,1-.06.07,1.11,1.11,0,0,0-.67.37h0A1.11,1.11,0,0,0,.47,4.8Z"/></svg>