<svg id="_ÎÓÈ_1" data-name="—ÎÓÈ 1" xmlns="http://www.w3.org/2000/svg" viewBox="0 0 5.9 5.18"><defs><style>.cls-1{fill-rule:evenodd;}</style></defs><title>CareViso_Icon_Alert</title><path class="cls-1" d="M2.86.2,1.56,2.44.16,4.87A.1.1,0,0,0,.16,5l0,0H5.71l0,0a.1.1,0,0,0,0-.11h0L3,.2H3l0,0H2.89l0,0Zm.39,3.67v.49a.07.07,0,0,1-.07.07H2.72a.07.07,0,0,1-.07-.07V3.87a.07.07,0,0,1,.07-.07h.45a.07.07,0,0,1,.07.07Zm-.14.42H2.8V3.94h.31v.35Zm.17-2.62,0,1.79a.07.07,0,0,1-.07.07H2.73a.07.07,0,0,1-.07-.07h0l0-1.8a.07.07,0,0,1,.07-.07h.5a.07.07,0,0,1,.07.07ZM3.1,3.4H2.8l0-1.66h.36l0,1.66Zm-1.66-1L2.73.13A.26.26,0,0,1,2.82,0h0a.26.26,0,0,1,.25,0h0a.25.25,0,0,1,.09.09h0L5.86,4.79h0a.25.25,0,0,1,0,.25.25.25,0,0,1-.09.09h0a.25.25,0,0,1-.13,0H.25a.25.25,0,0,1-.13,0h0A.25.25,0,0,1,0,4.8Z"/></svg>