<svg id="_ÎÓÈ_1" data-name="—ÎÓÈ 1" xmlns="http://www.w3.org/2000/svg" viewBox="0 0 4.88 6.25"><defs><style>.cls-1{fill-rule:evenodd;}</style></defs><title>CareViso_Icon_Power</title><path class="cls-1" d="M2,4.15H4.44a.29.29,0,0,0,.2-.08h0a.29.29,0,0,0,.08-.2V2.08h-3V3.87A.29.29,0,0,0,2,4.15Zm1.29,1v.62a.43.43,0,0,1-.13.3h0a.43.43,0,0,1-.31.13H.43A.43.43,0,0,1,0,5.82V.07a.07.07,0,0,1,.14,0V5.82a.29.29,0,0,0,.29.29H2.87A.29.29,0,0,0,3.07,6h0a.29.29,0,0,0,.08-.2V5.2h-.4a.07.07,0,0,1-.07-.07V4.3H2a.43.43,0,0,1-.43-.43V2a.07.07,0,0,1,.07-.07h.28V.21A.07.07,0,0,1,2,.14h.46a.07.07,0,0,1,.07.07V1.94h1.4V.21A.07.07,0,0,1,4,.14h.46a.07.07,0,0,1,.07.07V1.94H4.8A.07.07,0,0,1,4.88,2V3.87a.43.43,0,0,1-.13.31h0a.43.43,0,0,1-.31.13H3.77v.83a.07.07,0,0,1-.07.07Zm-.47-.9v.76h.8V4.3ZM4.07,1h.31V.29H4.07V1Zm.31.14H4.07v.75h.31V1.18ZM2.08,1h.31V.29H2.08V1Zm.31.14H2.08v.75h.31Z"/></svg>