<svg id="_ÎÓÈ_1" data-name="—ÎÓÈ 1" xmlns="http://www.w3.org/2000/svg" viewBox="0 0 6 6"><defs><style>.cls-1{fill-rule:evenodd;}</style></defs><title>CareViso_Icon_stove</title><path class="cls-1" d="M.15.43v1H5.85v-1A.29.29,0,0,0,5.57.15H.43A.29.29,0,0,0,.15.43ZM3,.35a.45.45,0,0,1,.32.13h0a.45.45,0,0,1-.65.64h0a.45.45,0,0,1,0-.64h0A.45.45,0,0,1,3,.35Zm.22.23h0A.31.31,0,0,1,2.78,1h0A.31.31,0,1,1,3.22.58ZM1.15,2.36V4.85h3.7V2.36H1.15ZM1,4.92V2.28a.07.07,0,0,1,.07-.07H4.92A.07.07,0,0,1,5,2.28V4.92A.07.07,0,0,1,4.92,5H1.08A.07.07,0,0,1,1,4.92ZM.15,1.55H5.85v4a.29.29,0,0,1-.29.29H.43a.29.29,0,0,1-.29-.29h0v-4ZM0,1.49H0v-1A.43.43,0,0,1,.43,0H5.57A.43.43,0,0,1,6,.43v1H6V5.57A.43.43,0,0,1,5.56,6H.43A.43.43,0,0,1,0,5.56H0Z"/></svg>