<svg id="_ÎÓÈ_1" data-name="—ÎÓÈ 1" xmlns="http://www.w3.org/2000/svg" viewBox="0 0 6.09 4.62"><defs><style>.cls-1{fill-rule:evenodd;}</style></defs><title>CareViso_Icon_Video</title><path class="cls-1" d="M1.33,4.48H4.76V.14H1.33V4.48ZM.14,3.77h1V2.89h-1v.88Zm1,.14h-1v.27a.29.29,0,0,0,.29.29h.75V3.91Zm-1-1.17h1V1.87h-1v.87Zm0-1h1V.86h-1v.87Zm0-1h1V.14H.43a.29.29,0,0,0-.2.08h0a.29.29,0,0,0-.08.2V.71ZM4.91,3.77h1V2.89h-1v.88Zm1,.14h-1v.56h.75a.29.29,0,0,0,.2-.08h0a.29.29,0,0,0,.08-.2V3.91Zm-1-1.17h1V1.87h-1v.87Zm0-1h1V.86h-1v.87Zm0-1h1V.43A.29.29,0,0,0,5.66.14H4.91V.71Zm-2.68.47,2.08,1a.07.07,0,0,1,0,.1l0,0-2.08,1a.07.07,0,0,1-.1,0,.07.07,0,0,1,0,0h0V1.25a.07.07,0,0,1,.07-.07ZM4.11,2.27l-1.85.91V1.36l1.85.91Zm.73,2.35H.43A.43.43,0,0,1,0,4.19V.43H5.66a.43.43,0,0,1,.43.43V4.19A.43.43,0,0,1,6,4.49H6a.43.43,0,0,1-.31.13H4.83Z"/></svg>