<svg id="_ÎÓÈ_1" data-name="—ÎÓÈ 1" xmlns="http://www.w3.org/2000/svg" viewBox="0 0 5.71 5.77"><defs><style>.cls-1{fill-rule:evenodd;}</style></defs><title>CareViso_Icon_Medical</title><path class="cls-1" d="M2.17,0H3.54a.07.07,0,0,1,.07.07v1.5L4.91.82a.07.07,0,0,1,.1,0H5L5.7,2a.07.07,0,0,1,0,.1h0l-1.3.75,1.3.75a.07.07,0,0,1,0,.1L5,4.93a.07.07,0,0,1-.1,0L3.61,4.2V5.7a.07.07,0,0,1-.07.07H2.17a.07.07,0,0,1-.07-.07V4.2L.8,5a.07.07,0,0,1-.1,0h0L0,3.73a.07.07,0,0,1,0-.1l1.3-.75L0,2.14A.07.07,0,0,1,0,2H0L.7.85a.07.07,0,0,1,.1,0l1.3.75V.07A.07.07,0,0,1,2.17,0ZM3.47.14H2.24V1.69h0a.08.08,0,0,1,0,0,.07.07,0,0,1-.1,0L.79,1,.17,2l1.34.77,0,0a.07.07,0,0,1,0,.1L.17,3.72.79,4.79,2.12,4h0a.07.07,0,0,1,.07.07V5.63H3.47V4.08h0a.07.07,0,0,1,0,0,.07.07,0,0,1,.1,0l1.34.77.62-1.07L4.2,3l0,0a.07.07,0,0,1,0-.1L5.54,2,4.92,1l-1.34.77h0a.07.07,0,0,1-.07-.07Z"/></svg>